<svg width="102" height="91" viewBox="0 0 102 91" fill="none" xmlns="http://www.w3.org/2000/svg">
<path d="M41.002 56.9629V39.9629M41.002 39.9629L45.502 44.4629M41.002 39.9629L36.502 44.4629" stroke="black"/>
<path d="M53.502 56.9629V39.9629M53.502 39.9629L58.002 44.4629M53.502 39.9629L49.002 44.4629" stroke="black"/>
<circle cx="29.502" cy="84.4629" r="6.5" fill="black"/>
<circle cx="94.502" cy="84.4629" r="6.5" fill="black"/>
<path d="M100 74.4628H16.5V25.9624M16.5 25.9624V9.96333C16.5 0.461584 1.99553 -1.33844 2 8.96277C2.00195 13.4629 16.5 25.9624 16.5 25.9624Z" stroke="black" stroke-width="3"/>
<rect x="23.502" y="9.46289" width="48" height="58" stroke="black"/>
<rect x="76.002" y="42.9629" width="24" height="25" fill="black"/>
<rect x="36.002" y="58.9629" width="24" height="1" fill="black"/>
</svg>
