<svg width="137" height="130" viewBox="0 0 137 130" fill="none" xmlns="http://www.w3.org/2000/svg">
<path d="M82.9994 48.5234C79.3328 53.3568 72.6994 64.1234 75.4994 68.5234" stroke="#4F4F4F"/>
<path d="M66.5 58.5234L10.5 126.023" stroke="#4F4F4F"/>
<path d="M1.50047 40.0236L27.0005 14.5236C33.3336 10.1902 43 4.52344 48.5 1.52356C50.3098 0.53644 51 2.52356 50.5 3.52356L37.5 25.0231L12 50.5231C10.8004 51.7227 9.83349 51.0229 9.5 50.5231L1.50047 42.5236C0.300473 41.3236 1.00047 40.3569 1.50047 40.0236Z" fill="#4F4F4F" stroke="#4F4F4F"/>
<path d="M87.6137 76.9593L127.195 116.885L127.649 118.429L127.077 119.497L123.787 122.774L118.303 128.236L117.253 128.283L73.2614 83.4311L87.6137 76.9593Z" fill="#4F4F4F"/>
<path d="M83.9974 11.5246C92.7951 2.72237 99.9974 5.85796 102.497 8.52463C104.831 11.0245 107.897 17.6243 101.497 24.0243C95.0967 30.4243 85 29.5268 82.4974 27.0243C79.4999 25.0234 78.164 17.361 83.9974 11.5246Z" stroke="#4F4F4F"/>
<path d="M110.062 37.3244C118.86 28.5222 126.062 31.6578 128.562 34.3244C130.895 36.8243 133.961 43.4241 127.561 49.8241C121.161 56.2241 111.064 55.3266 108.562 52.8241C105.564 50.8232 104.228 43.1608 110.062 37.3244Z" stroke="#4F4F4F"/>
<path d="M75.0009 19.0232C73.0009 31.0232 83.8342 35.0232 89.5009 35.5232L10.5 115.523V126.523L21 125.023C47.5 94.6901 101.5 43.0234 101 47.0234C99.0145 62.9076 131.5 63.0234 135.5 45.5234C141.199 20.5882 118 26.0234 115 27.5234C110.757 29.6448 85.118 52.9054 84 54.0234C82.5 55.5234 79.5 55.0234 80.5 52.5234C86 40.5234 102 38.0232 109 19.0232C114.6 3.82316 100.333 0.689826 92.5 1.02316C87.5003 2.02316 77.0009 7.02316 75.0009 19.0232Z" stroke="#4F4F4F"/>
<circle cx="67.5" cy="68.0234" r="3" stroke="#4F4F4F"/>
<path d="M74.5 84.0234L68 76.5234L77.5 67.5234L89 79.0234L74.5 84.0234Z" stroke="#4F4F4F"/>
<path d="M27 35.0234L59 67.0234" stroke="#4F4F4F"/>
<path d="M35 25.5234L67 57.5234" stroke="#4F4F4F"/>
</svg>
