<svg width="29" height="30" viewBox="0 0 29 30" fill="none" xmlns="http://www.w3.org/2000/svg">
<circle cx="14.5" cy="15.4976" r="14.5" fill="#656565"/>
<path d="M17.8351 6.71396H11.3796C8.35356 6.71396 5.9 9.17268 5.9 12.2042V18.6725C5.9 21.704 8.35356 24.1628 11.3796 24.1628H17.8351C20.8611 24.1628 23.3147 21.704 23.3147 18.6725V12.2042C23.3147 9.17268 20.8611 6.71396 17.8351 6.71396ZM21.5008 18.6725C21.5008 20.6981 19.8562 22.3457 17.8351 22.3457H11.3796C9.35848 22.3457 7.71387 20.6981 7.71387 18.6725V12.2042C7.71387 10.1786 9.35848 8.53104 11.3796 8.53104H17.8351C19.8562 8.53104 21.5008 10.1786 21.5008 12.2042V18.6725Z" fill="#111111" stroke="#111111" stroke-width="0.2"/>
<path d="M14.6083 11.0265C12.1762 11.0265 10.2047 13.0022 10.2047 15.4386C10.2047 17.875 12.1762 19.8507 14.6083 19.8507C17.0404 19.8507 19.012 17.875 19.012 15.4386C19.012 13.0022 17.0404 11.0265 14.6083 11.0265ZM14.6083 18.0337C13.1811 18.0337 12.0186 16.8691 12.0186 15.4386C12.0186 14.0071 13.1811 12.8435 14.6083 12.8435C16.0356 12.8435 17.1981 14.0071 17.1981 15.4386C17.1981 16.8691 16.0355 18.0337 14.6083 18.0337Z" fill="#111111" stroke="#111111" stroke-width="0.2"/>
<path d="M19.2336 11.4769C19.6057 11.4769 19.907 11.1748 19.907 10.8025C19.907 10.4302 19.6057 10.128 19.2336 10.128C18.8615 10.128 18.5602 10.4302 18.5602 10.8025C18.5602 11.1748 18.8615 11.4769 19.2336 11.4769Z" fill="#111111" stroke="#111111" stroke-width="0.2"/>
</svg>
