<svg width="86" height="87" viewBox="0 0 86 87" fill="none" xmlns="http://www.w3.org/2000/svg">
<path d="M14.5 86.5L0 72L8 64L14.5 70.5L15.5 69.5L9 63L13.5 58.5L22 67L25 64L16.5 55.5L22 50L28.5 56.5L29.5 55.5L23 49L29.5 42.5L44 57L14.5 86.5Z" fill="black"/>
<path d="M56.5 44L42 29.5L50 21.5L56.5 28L57.5 27L51 20.5L55.5 16L64 24.5L67 21.5L58.5 13L64 7.5L70.5 14L71.5 13L65 6.5L71.5 0L86 14.5L56.5 44Z" fill="black"/>
<path d="M10 18.5L75 83.5C77.5 86 85.5 77.5 83 75C80.5 72.5 39 31.5 18 10.5M10 18.5L3 3L18 10.5M10 18.5C16.4 18.5 18 13.1667 18 10.5" stroke="black"/>
</svg>
