<svg width="29" height="30" viewBox="0 0 29 30" fill="none" xmlns="http://www.w3.org/2000/svg">
<circle cx="14.5" cy="15.4976" r="14.5" fill="#656565"/>
<path fill-rule="evenodd" clip-rule="evenodd" d="M21.2836 18.0393C21.9295 18.6712 22.6113 19.2658 23.1907 19.9615C23.4466 20.2706 23.689 20.5896 23.8743 20.9484C24.137 21.4584 23.8991 22.0196 23.4427 22.0501L20.6057 22.0488C19.8739 22.1096 19.2902 21.8144 18.7994 21.3132C18.4066 20.9123 18.0429 20.4856 17.6652 20.0712C17.5103 19.9018 17.3483 19.7425 17.1547 19.6165C16.7674 19.3646 16.4312 19.4417 16.2099 19.8465C15.9845 20.2581 15.9333 20.7139 15.9112 21.1727C15.8808 21.8421 15.6789 22.0181 15.0078 22.0487C13.5737 22.1165 12.2126 21.8991 10.9483 21.1742C9.83355 20.5351 8.96914 19.633 8.21676 18.6116C6.75186 16.6229 5.63004 14.4375 4.62179 12.191C4.39484 11.6848 4.56081 11.4131 5.11817 11.4035C6.04369 11.3855 6.96908 11.3868 7.89569 11.4022C8.27185 11.4077 8.52087 11.6239 8.66611 11.98C9.16684 13.2137 9.77955 14.3874 10.5486 15.4753C10.7534 15.765 10.9623 16.0546 11.2597 16.2585C11.5887 16.4842 11.8392 16.4094 11.9939 16.0422C12.0922 15.8094 12.1352 15.5586 12.1573 15.3092C12.2306 14.4512 12.2403 13.5947 12.1117 12.7397C12.0327 12.2061 11.7328 11.8607 11.2014 11.7597C10.9302 11.7082 10.9706 11.6071 11.1019 11.452C11.3299 11.1846 11.5444 11.0181 11.9719 11.0181H15.1782C15.683 11.1179 15.7951 11.3451 15.8642 11.854L15.8669 15.4226C15.8614 15.6196 15.9651 16.2042 16.3193 16.3346C16.6027 16.4274 16.7896 16.2002 16.9596 16.0202C17.7273 15.2038 18.2752 14.239 18.7647 13.2399C18.9819 12.8007 19.1687 12.3444 19.3497 11.8886C19.4838 11.5504 19.6942 11.3839 20.0745 11.3913L23.1603 11.3941C23.2518 11.3941 23.3444 11.3954 23.433 11.4106C23.953 11.4994 24.0955 11.7235 23.9349 12.2323C23.6819 13.0306 23.1895 13.6958 22.7081 14.3641C22.1935 15.0775 21.6431 15.7666 21.1328 16.4843C20.6639 17.1397 20.7011 17.4701 21.2836 18.0393Z" fill="#111111"/>
</svg>
